<svg version="1.1" id="Layer_1" xmlns="http://www.w3.org/2000/svg" xmlns:xlink="http://www.w3.org/1999/xlink" x="0px" y="0px"
	 width="100%" viewBox="0 0 496 496" enable-background="new 0 0 496 496" xml:space="preserve">
<path fill="#000000" opacity="1.000000" stroke="none" 
	d="
M257.061035,109.763535 
	C297.474548,110.361481 332.261108,123.437660 360.136322,152.675598 
	C378.835968,172.289413 388.811737,196.047699 391.998016,222.799179 
	C392.114227,223.774689 392.270111,224.814697 390.741119,225.615799 
	C388.047852,222.046631 389.039062,217.484406 387.682007,213.605194 
	C386.945160,211.498825 387.276245,209.202011 383.963074,208.646255 
	C381.718750,208.269791 381.544128,205.256821 380.816956,203.300842 
	C374.302765,185.778900 363.959534,170.868500 350.329437,158.167740 
	C347.906372,155.909897 345.691833,153.351028 342.019836,153.029617 
	C341.286102,152.965408 340.400269,152.375381 339.942169,151.761139 
	C331.387543,140.290009 318.195404,136.387207 305.933899,131.079483 
	C301.420410,129.125687 296.474365,128.171158 291.589294,126.965500 
	C330.684814,143.425659 358.405426,170.466614 370.658905,211.727570 
	C378.806732,210.315140 381.092010,212.720749 379.572510,220.473969 
	C377.478271,231.159698 372.420624,240.487808 366.377075,249.334732 
	C362.704285,254.711197 362.256561,266.734558 365.907166,271.375763 
	C368.486359,270.979309 369.557465,268.798309 370.959320,266.996155 
	C374.571320,262.352631 376.925842,257.000153 379.596497,251.820679 
	C381.600555,247.933960 383.913788,244.265533 388.152588,242.398804 
	C390.450012,241.387039 392.680023,241.330261 394.646759,243.186234 
	C396.618134,245.046555 396.663055,247.289520 395.798523,249.633041 
	C394.424500,253.357529 391.427673,255.371765 387.981201,256.904907 
	C384.613861,258.402863 382.999756,262.621460 384.573212,265.819794 
	C385.752411,268.216827 387.619202,268.098022 389.609802,266.998779 
	C393.042236,265.103424 395.451447,262.101288 397.945709,259.186371 
	C399.204224,257.715607 400.009277,255.698502 402.245819,255.292145 
	C403.680908,256.483429 402.539520,257.432251 401.937347,258.271240 
	C399.398895,261.808075 396.419342,264.978149 393.052460,267.711365 
	C386.605225,272.945221 382.124146,271.982666 376.389618,264.086090 
	C374.574829,266.518585 372.872864,268.909027 371.055176,271.208038 
	C368.893463,273.942230 366.295044,276.037506 362.519135,275.182648 
	C358.761078,274.331848 357.991913,271.145386 357.402222,267.959869 
	C357.015045,265.868530 356.726196,263.758972 356.471588,262.151611 
	C354.289459,264.028931 351.903198,266.007172 349.599396,268.077240 
	C341.188416,275.634827 334.453796,274.441254 329.408569,264.269958 
	C327.298767,266.307648 325.327087,268.420807 323.133026,270.270172 
	C321.081879,271.999054 318.756256,273.627594 315.887695,272.224213 
	C313.303772,270.960083 313.584747,268.383942 313.644348,266.069336 
	C313.712128,263.437012 313.955902,260.809235 314.127594,258.110321 
	C311.104889,256.709290 308.991577,257.384583 307.436859,260.270477 
	C306.573669,261.872833 305.448395,263.347015 304.339050,264.800995 
	C302.299133,267.474640 300.161926,270.468628 296.264984,269.491699 
	C292.277374,268.492035 292.871704,264.683197 292.398224,261.231293 
	C289.947937,261.914032 288.557953,263.858795 286.841339,265.196075 
	C282.185974,268.822754 277.271942,271.891632 271.389679,273.021362 
	C263.831818,274.472931 257.825958,270.426727 257.801025,263.039337 
	C257.737183,244.126038 264.309570,227.898804 278.770111,215.281738 
	C280.381195,213.876007 282.306519,212.764099 284.226929,211.794891 
	C287.078461,210.355774 290.165558,208.972000 293.189270,211.125214 
	C296.262085,213.313400 296.665070,216.789734 296.133698,220.143845 
	C295.585083,223.606842 295.262878,227.412994 291.165863,229.722977 
	C290.749237,226.323120 293.267548,224.185669 293.488525,221.457367 
	C293.633850,219.662933 294.332947,217.570572 292.723297,216.264252 
	C290.909760,214.792450 289.251221,216.477570 287.766205,217.353668 
	C281.410736,221.103287 276.938873,226.668564 273.363647,232.976486 
	C268.708221,241.190308 265.900024,250.042053 264.939392,259.433319 
	C264.587036,262.877930 265.306396,266.162476 268.320740,268.341278 
	C271.448944,270.602356 274.643799,269.798981 277.717072,268.063660 
	C286.174866,263.287903 293.597382,257.669800 295.633545,247.278229 
	C296.079010,245.004837 296.588013,241.618927 300.186249,242.813431 
	C303.548004,243.929413 303.030457,246.809082 301.925995,249.505722 
	C300.403015,253.224091 299.540955,257.115295 298.874023,261.066010 
	C298.619873,262.571442 298.140961,264.028839 300.273651,265.499420 
	C303.147034,261.946869 307.220276,259.199341 305.811768,253.426788 
	C305.250061,251.124817 305.774323,248.781174 306.935242,246.655655 
	C307.747192,245.169037 308.571625,243.525818 310.682281,244.191971 
	C312.461548,244.753510 313.297729,246.191208 313.243988,248.050034 
	C313.220245,248.871719 313.104614,249.720627 312.854736,250.500809 
	C311.694641,254.123215 312.977112,255.114334 316.523865,254.240891 
	C322.813141,252.692062 323.176483,253.174377 321.614471,259.461517 
	C320.945374,262.154846 319.725861,264.850952 320.907410,268.151031 
	C323.624756,267.211029 325.003387,264.865540 326.306335,262.783997 
	C328.863129,258.699463 331.064148,254.390091 333.363708,250.147369 
	C335.452911,246.292572 337.759125,242.672302 341.963196,240.749634 
	C344.472076,239.602203 346.950714,239.497955 348.851990,241.643356 
	C350.781860,243.821060 351.765350,246.381424 349.928131,249.327209 
	C347.742493,248.426559 349.489655,245.488235 347.192932,244.922119 
	C341.487823,247.761932 335.805115,260.159210 337.470978,266.215790 
	C338.432556,269.711670 341.066742,270.814789 344.423004,268.479095 
	C351.667175,263.437653 357.546448,257.451660 358.656219,247.904282 
	C359.891296,237.279099 362.580231,226.960800 367.624146,217.425476 
	C368.727448,215.339767 368.125122,213.573196 367.571930,211.685242 
	C357.876770,178.596115 337.153442,154.476013 307.374664,137.734421 
	C297.294769,132.067535 286.543060,128.105927 275.386902,125.170685 
	C270.571320,123.903671 265.891937,122.478653 260.735107,124.119438 
	C257.745972,125.070511 254.730087,122.815186 251.450348,123.011978 
	C207.426651,125.653610 172.404907,144.492493 146.966599,180.721878 
	C145.435074,182.903076 144.319168,186.118942 141.067139,182.093094 
	C136.095596,189.558716 134.492996,198.155701 131.117401,206.431946 
	C128.974884,202.262512 132.417572,190.849655 139.043701,178.934433 
	C143.732697,170.502594 149.160217,162.544785 155.314377,154.926346 
	C152.632904,152.391098 151.076569,154.497162 149.627838,155.806122 
	C140.800995,163.781403 133.104141,172.699387 127.167534,183.072159 
	C126.230507,184.709396 125.875183,186.933975 123.270638,187.512726 
	C121.842178,185.324417 123.537262,183.736008 124.406845,182.204086 
	C130.380371,171.680573 138.148865,162.586029 146.949249,154.339661 
	C148.639954,152.755386 150.516678,151.414566 150.828751,148.770020 
	C151.070496,146.721420 152.688217,145.496216 154.628601,145.342194 
	C158.519287,145.033371 161.314835,142.631943 164.487305,140.831635 
	C188.586197,127.155930 213.018234,114.267525 241.150650,110.963142 
	C246.268616,110.362007 251.433472,110.160080 257.061035,109.763535 
M373.410187,229.089569 
	C371.968903,229.763412 371.429840,227.501831 370.070282,227.930466 
	C367.824768,233.331726 367.108398,238.946838 365.700562,245.769150 
	C369.582581,239.710098 372.544464,234.728668 374.389221,228.423752 
	C375.734741,224.817978 378.015869,221.381241 376.702057,217.294052 
	C376.119354,218.953659 376.830811,220.990555 375.325317,222.304947 
	C373.056274,224.285980 373.332184,226.579849 373.410187,229.089569 
M279.548828,120.623436 
	C299.336548,123.865829 317.805908,130.644135 334.861298,141.225876 
	C337.651855,142.957245 340.181091,145.224472 343.909302,144.809921 
	C345.536896,144.628922 346.965546,145.815247 347.098724,147.420959 
	C347.367737,150.663223 349.671570,152.300873 351.722931,154.224792 
	C357.931091,160.047302 363.641083,166.301437 368.709351,173.166748 
	C373.846558,180.125351 378.608215,187.294586 382.194275,195.217972 
	C355.011139,119.602394 267.019440,99.148247 215.750046,120.224602 
	C224.480164,119.043274 233.395065,117.468750 242.013885,118.907974 
	C250.520065,120.328384 259.087616,112.655159 267.274963,119.565018 
	C267.673615,119.901451 268.575958,119.610077 269.238312,119.670334 
	C272.382050,119.956284 275.523926,120.262833 279.548828,120.623436 
M196.589447,132.995224 
	C205.847214,128.161346 215.839493,125.334198 226.725159,122.276741 
	C188.239639,123.900299 160.089569,148.352951 144.568237,176.487564 
	C159.107224,158.058350 175.207260,142.920456 196.589447,132.995224 
M387.032043,253.188248 
	C387.018890,253.352859 386.959229,253.532288 387.005646,253.677902 
	C387.051666,253.822250 387.235474,254.057419 387.306030,254.039917 
	C391.499054,253.000015 393.583740,250.032074 392.768524,246.040237 
	C389.604492,247.224808 388.750153,250.239792 387.032043,253.188248 
z"/>
<path fill="#000000" opacity="1.000000" stroke="none" 
	d="
M142.430450,316.417969 
	C139.382614,308.359039 136.205490,300.723053 135.639175,292.379791 
	C139.078705,291.348541 138.990402,293.540344 139.423141,295.255157 
	C148.848999,332.606934 171.516205,359.318512 205.289551,377.048828 
	C224.214600,386.984039 244.364960,389.088928 265.404938,387.016907 
	C300.109314,383.599274 327.194061,366.714844 349.210510,340.670227 
	C357.775604,330.538055 363.852448,318.863678 368.551025,306.467010 
	C369.201691,304.750366 369.203430,302.473541 372.708984,301.341156 
	C367.210266,321.679169 356.112549,337.653900 343.013885,352.532135 
	C355.078186,343.374908 363.484955,331.126923 371.747620,318.684784 
	C366.606323,332.338196 357.727234,343.330658 347.438477,353.334229 
	C337.062622,363.422455 325.185455,371.276672 312.055695,377.335388 
	C298.882416,383.414215 284.889557,386.806519 270.862518,390.113922 
	C302.676056,388.294312 330.510681,376.781036 353.257355,354.512512 
	C368.044586,340.036133 379.366119,322.998138 384.743652,302.573700 
	C385.158447,300.998230 385.163330,298.175079 387.783875,299.031647 
	C390.406982,299.889069 388.608276,302.292725 388.186523,303.772339 
	C384.222839,317.677155 378.077881,330.542450 369.287354,342.074646 
	C367.658478,344.211578 365.934204,346.195953 366.267181,349.188446 
	C366.446381,350.799103 365.693634,352.623596 364.167725,352.777466 
	C357.578033,353.441833 354.554382,359.039948 350.252167,362.683563 
	C328.976471,380.702362 304.478088,391.181610 276.808594,393.258728 
	C248.217636,395.404999 219.774216,393.270966 192.922180,382.504150 
	C153.297119,366.615723 126.474060,338.467438 115.032425,296.712524 
	C114.484032,294.711212 113.113373,292.490753 115.575760,288.751007 
	C123.646248,322.792969 141.404053,348.735199 170.213638,367.651398 
	C170.973221,363.793304 168.592590,362.704498 166.895737,361.365448 
	C152.968338,350.374695 141.712997,337.154633 133.444519,321.438538 
	C132.636139,319.902039 131.203537,318.447418 132.566223,314.916809 
	C143.021347,333.579712 155.034546,349.799500 172.838745,360.899384 
	C160.364563,347.764618 149.516708,333.591705 142.430450,316.417969 
M180.087708,370.389862 
	C178.334381,369.319275 176.540634,368.748077 174.121353,370.111267 
	C186.934677,378.411530 200.859894,382.801605 215.217285,386.103821 
	C203.075104,382.438080 191.677475,377.105988 180.087708,370.389862 
z"/>
<path fill="#000000" opacity="1.000000" stroke="none" 
	d="
M190.386520,259.596741 
	C190.348969,260.683380 190.435486,261.367584 190.315094,262.013184 
	C189.953659,263.951324 191.482391,267.107178 188.437317,267.426025 
	C185.142273,267.771027 184.846512,264.679169 184.615723,262.115662 
	C184.571701,261.626587 184.463425,261.143311 184.276886,259.990417 
	C181.419983,262.717621 179.001953,265.333069 176.266525,267.558319 
	C172.946732,270.258881 169.182709,272.313568 164.820526,270.030334 
	C160.586288,267.814026 159.311554,263.887177 160.018265,259.421478 
	C160.715958,255.012802 155.900513,255.734665 154.201813,252.993240 
	C152.671997,256.421265 151.259521,259.908112 149.579285,263.260742 
	C147.905731,266.600067 145.848831,269.978790 141.516617,269.729248 
	C137.092407,269.474396 135.681137,265.888153 134.621384,262.213165 
	C134.406372,261.467529 133.913437,260.802032 133.291748,259.605042 
	C130.868942,261.620361 128.725708,263.410767 126.574150,265.191040 
	C123.469360,267.760071 120.111908,269.924835 116.260986,271.181366 
	C111.619492,272.695892 106.858521,273.096191 103.075920,269.500946 
	C99.041504,265.666351 99.004791,260.553314 100.276001,255.506546 
	C102.389778,247.114761 108.202278,241.443222 114.863968,236.512238 
	C109.703140,228.705856 110.349075,224.165543 117.431305,217.724091 
	C120.822327,214.639893 124.760429,212.431931 129.113068,211.187469 
	C132.335388,210.266190 136.222076,209.604385 137.783875,213.599579 
	C139.195343,217.210175 138.764969,221.015930 135.170425,223.711075 
	C133.355179,222.229691 134.748367,221.101425 135.075256,219.970215 
	C135.485001,218.552277 136.461731,217.021606 134.982956,215.832520 
	C133.600769,214.721115 132.090912,215.641190 130.775116,216.305161 
	C125.924438,218.752899 121.850204,222.112991 118.939545,226.762573 
	C115.973206,231.501083 116.696075,233.324585 122.045685,234.828644 
	C122.628433,234.992462 123.142647,235.400070 123.655495,235.676727 
	C123.442245,238.022842 121.448425,238.212143 120.223274,239.164932 
	C112.413910,245.238281 106.438614,252.308395 107.261803,263.043213 
	C107.702568,268.790985 110.752151,270.755463 116.036644,268.563385 
	C122.480499,265.890381 127.549850,261.302429 132.283844,256.324249 
	C134.508820,253.984497 133.108902,250.817383 133.996048,248.213562 
	C134.913956,245.519485 133.713409,240.618301 138.236374,241.033295 
	C143.200424,241.488785 141.369965,246.205154 141.136719,249.167847 
	C140.784348,253.643784 139.716904,258.045563 141.315369,262.493225 
	C141.786057,263.802948 142.213226,265.127808 143.754959,265.309906 
	C145.316986,265.494385 146.108582,264.266632 146.778763,263.093628 
	C148.940674,259.309662 150.455948,255.256256 151.566132,251.057877 
	C151.992798,249.444397 152.299637,247.819748 153.659180,246.361160 
	C156.856491,247.816147 156.478302,252.961426 161.120636,253.392685 
	C162.662796,251.210007 164.287628,248.757278 166.074020,246.428467 
	C167.614304,244.420517 169.527313,242.761581 172.016312,242.042130 
	C173.991501,241.471207 175.936447,241.417404 177.602844,243.058716 
	C179.357498,244.786911 179.715698,246.840179 179.009521,249.035034 
	C177.803558,252.783325 175.040237,255.065445 171.509399,256.582886 
	C169.518524,257.438477 167.390671,258.277313 167.331528,260.980682 
	C167.281570,263.264954 166.562698,265.921478 169.077377,267.302826 
	C171.384750,268.570312 173.237976,266.852692 174.878250,265.483246 
	C180.532532,260.762543 185.033508,255.437515 184.720551,247.370270 
	C184.626556,244.947418 183.873001,240.996140 187.635803,241.166840 
	C191.721191,241.352173 191.290665,245.095535 190.743073,248.187363 
	C190.629898,248.826401 190.572632,249.475342 190.410934,250.730255 
	C192.943253,247.465073 194.939926,244.513977 197.332626,241.929535 
	C199.111298,240.008316 201.377991,237.959366 204.312042,239.448669 
	C207.514618,241.074265 207.758896,244.214828 207.068573,247.288345 
	C206.157761,251.343430 204.981857,255.342300 203.820633,259.336456 
	C203.248901,261.302887 203.205139,263.241486 203.452637,266.542755 
	C207.478317,261.356812 209.944534,256.751801 210.660553,251.246750 
	C211.089386,247.949692 211.512863,244.650589 212.030579,241.366898 
	C212.382736,239.133194 213.972733,236.279053 211.446045,235.004425 
	C208.936859,233.738617 205.847076,232.649765 202.797729,233.981827 
	C201.616760,234.497726 200.514786,235.194473 199.051743,235.984375 
	C198.148926,232.977325 200.014084,232.253815 201.882462,231.707184 
	C204.514893,230.936996 207.312332,231.149384 209.794891,231.890808 
	C213.378891,232.961136 214.515594,231.448639 215.427536,228.395447 
	C216.764435,223.919556 218.535400,219.554459 221.671219,215.981613 
	C223.465881,213.936813 225.643402,212.196320 228.651749,213.493027 
	C231.488052,214.715561 231.447617,217.314194 231.417709,219.880753 
	C231.360596,224.781693 229.012680,229.137238 227.895050,233.841507 
	C232.498489,236.313202 236.961914,232.683777 242.271698,233.921768 
	C238.256042,237.267303 234.037094,236.232285 230.351807,237.124146 
	C229.076523,237.432770 227.540939,237.192627 226.489975,237.817902 
	C218.076889,242.823288 212.829926,262.487854 217.787857,271.673096 
	C224.617645,268.102722 225.921249,260.008667 231.222855,254.721710 
	C232.517960,257.730927 230.682663,259.379944 229.714676,261.039642 
	C227.621277,264.628967 225.349579,268.136505 222.880142,271.477448 
	C220.799454,274.292480 217.956635,276.217499 214.246475,275.070007 
	C210.633087,273.952423 210.022446,270.699738 209.678299,267.460876 
	C209.555786,266.307800 209.557907,265.141479 209.466095,263.196472 
	C207.888336,265.139740 206.785385,266.691772 205.482742,268.052704 
	C203.918167,269.687256 202.089127,270.731995 199.673523,269.742584 
	C197.296677,268.769073 196.652252,266.925873 196.667511,264.541565 
	C196.702072,259.129395 198.448380,254.073853 199.756210,248.924515 
	C200.238556,247.025330 200.752243,245.134094 200.717316,242.972260 
	C195.570816,247.313370 192.172089,252.709747 190.386520,259.596741 
M221.375549,231.418243 
	C222.020126,234.933975 223.984741,234.291199 225.184784,232.152954 
	C227.567581,227.907135 229.210297,223.309418 229.261337,217.185211 
	C224.265945,221.102478 223.081619,226.031494 221.375549,231.418243 
M169.967880,253.725601 
	C174.238480,253.467361 175.864563,250.837906 176.654404,246.558014 
	C172.265686,247.309082 171.561234,250.678665 169.967880,253.725601 
M221.628479,240.292099 
	C222.087967,239.085709 223.701508,238.026230 221.977661,236.318542 
	C217.947144,237.788391 219.164795,241.382080 218.975311,244.436935 
	C219.755173,243.243301 220.535049,242.049667 221.628479,240.292099 
z"/>
<path fill="#000000" opacity="1.000000" stroke="none" 
	d="
M182.383972,299.655579 
	C182.372742,301.444427 183.354797,304.149109 180.465546,302.997101 
	C177.881073,301.966614 175.678787,302.806213 173.119965,303.016724 
	C172.082779,300.079529 174.015259,297.572876 173.618408,294.983978 
	C176.084229,294.288116 176.442429,296.137146 177.432007,297.262482 
	C179.040283,296.825592 179.169113,293.831635 181.742996,294.805511 
	C183.251450,296.002106 182.100082,297.788422 182.383972,299.655579 
z"/>
<path fill="#000000" opacity="1.000000" stroke="none" 
	d="
M280.208191,302.972046 
	C276.837585,300.494598 279.707184,297.843048 279.208282,295.452850 
	C281.824005,294.397827 282.243225,296.290588 283.204346,297.286804 
	C284.867523,297.086700 284.823730,294.174408 287.434631,295.099121 
	C288.614685,297.373352 288.364410,300.056122 288.227417,302.782166 
	C285.505402,303.549652 282.955597,300.940186 280.208191,302.972046 
z"/>
<path fill="#000000" opacity="1.000000" stroke="none" 
	d="
M306.487976,397.286804 
	C305.405579,394.200195 306.481262,392.430511 309.163635,391.767609 
	C311.434143,391.206512 313.408325,391.794556 314.478729,394.135925 
	C315.386871,396.122559 314.618011,397.739136 313.031250,398.846252 
	C310.602081,400.541077 308.409058,400.025757 306.487976,397.286804 
z"/>
<path fill="#000000" opacity="1.000000" stroke="none" 
	d="
M101.638351,312.428894 
	C104.969490,311.338684 107.693535,311.295898 108.417137,315.135498 
	C108.779671,317.059143 107.872780,318.658905 106.035461,319.579468 
	C104.175987,320.511169 102.434708,320.157440 101.090973,318.712769 
	C99.232651,316.714813 99.277657,314.608276 101.638351,312.428894 
z"/>
<path fill="#000000" opacity="1.000000" stroke="none" 
	d="
M208.618134,109.640678 
	C206.225677,107.818817 205.122971,105.877487 206.906906,103.468346 
	C208.404739,101.445557 210.593399,101.200623 212.725082,102.225037 
	C214.505539,103.080666 215.563721,104.723656 214.876602,106.756989 
	C213.933777,109.547035 211.842697,110.544525 208.618134,109.640678 
z"/>
<path fill="#000000" opacity="1.000000" stroke="none" 
	d="
M304.258362,241.228638 
	C301.128662,241.884094 299.623840,240.592819 299.815979,237.890610 
	C299.995605,235.364563 300.794373,232.643204 303.586975,232.001205 
	C305.898621,231.469772 307.302826,233.155792 307.407928,235.528580 
	C307.511292,237.862335 306.433960,239.691528 304.258362,241.228638 
z"/>
<path fill="#000000" opacity="1.000000" stroke="none" 
	d="
M253.681091,376.897400 
	C256.466278,378.525085 256.970551,380.645813 255.549835,382.930084 
	C254.399368,384.779907 252.507355,385.333130 250.356750,384.511169 
	C248.368011,383.751099 247.557678,382.218567 247.815887,380.225983 
	C248.236328,376.981628 250.533478,376.474030 253.681091,376.897400 
z"/>
<path fill="#000000" opacity="1.000000" stroke="none" 
	d="
M210.135132,301.980164 
	C209.910721,299.498749 209.683060,297.370544 210.344772,295.464539 
	C212.614777,294.137543 213.334839,296.532593 214.793549,296.891510 
	C215.541489,296.243164 215.091431,294.297058 217.298218,295.047424 
	C217.675903,297.615692 217.494125,300.262299 216.698059,303.836761 
	C214.695282,300.374695 212.362747,302.476440 210.135132,301.980164 
z"/>
<path fill="#000000" opacity="1.000000" stroke="none" 
	d="
M265.252747,303.326477 
	C259.988342,301.753754 263.891998,298.027496 262.587830,295.592102 
	C264.670868,294.229706 266.493439,294.236664 268.955872,295.334106 
	C266.260956,297.482941 272.547272,302.601318 265.252747,303.326477 
z"/>
<path fill="#000000" opacity="1.000000" stroke="none" 
	d="
M245.592484,295.960205 
	C247.948151,294.141785 250.019775,293.112885 252.283310,296.112518 
	C250.246017,297.272430 246.340286,296.186615 247.666183,300.348938 
	C249.462738,301.496307 249.703308,298.251251 251.670135,299.155975 
	C251.735962,299.226532 252.274612,299.531799 252.333008,299.911041 
	C252.682144,302.178497 251.568756,303.346313 249.342941,303.474792 
	C247.164413,303.600555 245.370270,302.986145 244.808609,300.599457 
	C244.461166,299.123108 244.546036,297.642456 245.592484,295.960205 
z"/>
<path fill="#000000" opacity="1.000000" stroke="none" 
	d="
M322.202759,301.861084 
	C319.713898,303.965210 319.641754,300.414215 317.866211,300.400391 
	C316.741394,300.783386 317.990356,302.763031 316.017609,303.042511 
	C313.852936,300.585205 315.621155,297.754120 315.017181,295.239990 
	C317.993530,294.304993 318.549683,296.704254 319.967377,297.574066 
	C321.354187,297.266785 319.877747,295.107758 322.042511,295.054077 
	C322.850098,297.119293 322.037231,299.381134 322.202759,301.861084 
z"/>
<path fill="#000000" opacity="1.000000" stroke="none" 
	d="
M304.746460,302.229309 
	C302.875763,303.722961 300.994232,303.480377 298.966339,302.800171 
	C298.321747,300.333740 298.642822,297.906555 298.850739,295.411591 
	C300.742554,294.277679 302.583069,294.315735 304.784943,295.248810 
	C303.802582,297.491638 302.117340,299.812866 304.746460,302.229309 
z"/>
<path fill="#000000" opacity="1.000000" stroke="none" 
	d="
M234.927811,302.107147 
	C232.669769,303.912659 230.118835,300.613617 227.289856,304.374207 
	C228.025772,299.888306 229.047241,297.270782 230.886002,294.437439 
	C233.535797,296.431732 233.699265,299.427643 234.927811,302.107147 
z"/>
<path fill="#000000" opacity="1.000000" stroke="none" 
	d="
M197.587982,302.897186 
	C195.886566,300.622772 194.414047,303.966492 192.640869,302.431885 
	C193.339890,299.861786 193.702515,297.006134 196.031631,294.591980 
	C198.580475,296.406097 198.762238,299.280487 199.833649,301.559357 
	C200.717850,303.440033 199.023987,303.191376 197.587982,302.897186 
z"/>
<path fill="#000000" opacity="1.000000" stroke="none" 
	d="
M214.801712,140.904922 
	C217.278824,141.740265 218.044769,143.238831 217.104706,145.276520 
	C216.493362,146.601700 215.157288,147.093704 213.728897,146.812195 
	C212.496246,146.569260 211.629852,145.709259 211.388565,144.471619 
	C210.922333,142.080139 212.358765,141.177521 214.801712,140.904922 
z"/>
<path fill="#000000" opacity="1.000000" stroke="none" 
	d="
M303.818817,358.400208 
	C306.069183,358.999390 306.997833,360.204834 306.399292,362.178314 
	C305.880768,363.888092 304.499603,364.374451 302.848572,364.195099 
	C301.553589,364.054413 300.644562,363.328979 300.446350,362.038177 
	C300.096252,359.757843 301.316956,358.648499 303.818817,358.400208 
z"/>
<path fill="#000000" opacity="1.000000" stroke="none" 
	d="
M334.253784,297.904022 
	C333.167725,296.706696 331.518799,295.541077 334.018829,294.894073 
	C335.802551,294.432404 337.925262,293.887146 340.056244,295.799194 
	C336.894073,297.341980 337.859894,300.764069 336.536560,303.337708 
	C333.407471,302.325226 335.360260,299.704376 334.253784,297.904022 
z"/>
<path fill="#000000" opacity="1.000000" stroke="none" 
	d="
M383.859802,157.555099 
	C383.830353,161.132034 381.862701,161.764694 379.306702,160.845245 
	C377.681824,160.260727 377.237213,158.454987 378.135468,157.160049 
	C379.816772,154.736252 381.869568,154.957748 383.859802,157.555099 
z"/>
<path fill="#000000" opacity="1.000000" stroke="none" 
	d="
M115.255386,198.746460 
	C115.658997,195.779205 117.364578,195.236938 119.458298,196.259598 
	C120.984177,197.004898 121.393806,198.594284 120.104355,199.896927 
	C118.312958,201.706650 116.639732,201.198685 115.255386,198.746460 
z"/>
<path fill="#000000" opacity="1.000000" stroke="none" 
	d="
M181.019882,395.229431 
	C179.851196,392.761353 180.620956,391.331482 182.927795,391.237152 
	C184.561234,391.170349 185.848755,392.396820 185.439255,394.092224 
	C184.884842,396.387665 183.181381,396.575256 181.019882,395.229431 
z"/>
<path fill="#000000" opacity="1.000000" stroke="none" 
	d="
M337.794220,122.521606 
	C335.207550,122.481331 333.977875,121.382996 334.895538,119.146500 
	C335.575775,117.488670 337.277893,117.325348 338.590881,118.290474 
	C340.562225,119.739479 340.193481,121.257843 337.794220,122.521606 
z"/>
</svg>