<svg version="1.1" id="Layer_1" xmlns="http://www.w3.org/2000/svg" xmlns:xlink="http://www.w3.org/1999/xlink" x="0px" y="0px"
	 width="100%" viewBox="0 0 500 500" enable-background="new 0 0 500 500" xml:space="preserve">
<path fill="#FFFFFF" opacity="1.000000" stroke="none" 
	d="
M241.000000,501.000000 
	C160.666687,501.000000 80.833374,501.000000 1.000043,501.000000 
	C1.000029,334.333405 1.000029,167.666779 1.000014,1.000132 
	C167.666565,1.000088 334.333130,1.000088 500.999756,1.000044 
	C500.999847,167.666519 500.999847,334.333038 500.999939,500.999786 
	C414.500000,501.000000 328.000000,501.000000 241.000000,501.000000 
M138.337006,331.633148 
	C138.889740,332.280548 139.442474,332.927979 140.267044,334.010773 
	C140.845047,334.340607 141.423050,334.670441 141.968399,335.718231 
	C152.249847,346.100586 162.493851,356.520752 172.879440,366.797882 
	C173.769409,367.678558 176.270752,368.378540 176.878342,367.848846 
	C179.655685,365.427643 181.286606,367.714630 183.194901,368.905640 
	C191.152588,373.872345 197.606293,381.451447 207.699249,382.719543 
	C210.137146,383.025879 212.477646,384.070160 214.877823,384.720093 
	C230.524323,388.956848 246.275818,391.730011 262.412537,387.594879 
	C265.567719,386.786316 268.548309,385.253601 271.720032,384.561890 
	C277.510010,383.299072 283.455841,382.715393 289.206390,381.314026 
	C303.290771,377.881622 315.347412,370.018738 327.820709,363.095703 
	C328.110321,362.934967 328.433075,362.797638 328.662811,362.570862 
	C332.559479,358.723480 336.465271,354.884979 340.325836,351.001617 
	C346.265137,345.027313 352.242401,339.087372 358.030975,332.969574 
	C359.165070,331.770996 359.514648,329.830139 359.676483,327.808441 
	C359.480560,327.685699 359.284637,327.562958 359.264252,326.750061 
	C364.406067,317.978729 370.885590,310.011414 372.872345,299.489471 
	C374.167908,292.627930 377.445221,286.164429 379.204834,279.359711 
	C380.848450,273.003418 381.602142,266.420654 382.872040,259.962067 
	C383.293823,257.817047 384.498383,255.776077 384.650269,253.638184 
	C384.963654,249.226669 384.924866,244.779236 384.819641,240.351593 
	C384.682404,234.574783 384.340240,228.802811 384.044922,222.088852 
	C383.157013,223.569595 382.803101,224.159851 382.284302,225.025070 
	C376.541473,216.973663 376.029907,207.277435 373.046814,198.459702 
	C372.301880,196.257675 371.175629,194.184647 370.118500,191.814377 
	C373.610809,188.885071 369.085693,187.055054 368.800842,183.511078 
	C367.662445,185.351242 367.164948,186.155426 366.952820,186.498322 
	C365.190186,184.900589 363.408722,183.450104 361.854919,181.786911 
	C361.321838,181.216263 361.022491,180.041641 361.188690,179.265533 
	C362.308197,174.039124 359.797180,170.203308 356.407379,166.828217 
	C351.375336,161.817993 345.652679,157.410553 341.158417,151.974045 
	C335.489105,145.116058 330.196259,138.048599 322.227142,133.649811 
	C320.946381,132.942841 319.037964,131.565247 318.305389,131.997772 
	C315.667999,133.554962 314.578583,131.561752 312.805908,130.548340 
	C309.602386,128.716980 306.212280,127.167877 302.784393,125.788460 
	C300.423492,124.838417 297.774994,124.599449 295.421051,123.636703 
	C292.105835,122.280815 289.094330,119.866417 285.686462,119.117973 
	C278.242035,117.483009 270.609558,116.726822 263.090271,115.405022 
	C250.307159,113.157913 237.514236,110.205505 224.517532,113.121521 
	C215.482193,115.148750 206.627777,117.982307 197.528076,120.501167 
	C197.666718,120.846115 197.989166,121.648415 197.942352,121.531960 
	C192.361420,124.369614 187.084396,127.350418 181.569565,129.794647 
	C170.184387,134.840668 161.387375,143.415131 151.893982,151.044403 
	C148.851364,153.489563 145.286621,155.716629 143.225525,158.870102 
	C137.187637,168.108154 131.675385,177.699066 126.210320,187.295898 
	C124.766998,189.830414 122.601791,194.384933 123.571808,195.444092 
	C127.893997,200.163437 123.786392,201.343964 121.791908,202.667511 
	C121.311073,205.684341 120.952614,207.933380 120.594154,210.182419 
	C120.231674,210.157104 119.869186,210.131790 119.506706,210.106491 
	C119.157242,209.262787 118.807785,208.419083 118.458321,207.575378 
	C117.983398,207.606812 117.508469,207.638245 117.033546,207.669662 
	C117.033546,216.386459 117.033134,225.103241 117.036850,233.820038 
	C117.036919,233.979599 117.031151,234.232346 117.120575,234.285202 
	C120.797195,236.458420 119.337677,239.856598 119.122269,242.898132 
	C118.237434,255.392029 118.438622,267.793060 121.608253,280.024902 
	C122.697769,284.229401 123.430473,288.526337 124.360954,292.946228 
	C123.020096,292.649628 122.188683,292.465729 121.198799,292.246796 
	C121.575867,294.598236 121.680710,296.557526 122.230194,298.382965 
	C123.129341,301.370056 124.100143,304.372986 125.430054,307.185089 
	C128.104019,312.839233 130.924149,318.432739 133.919907,323.922485 
	C135.308167,326.466492 137.249115,328.708923 138.991058,331.022247 
	C138.991058,331.022247 138.917007,330.983429 138.337006,331.633148 
z"/>
<path fill="#020202" opacity="1.000000" stroke="none" 
	d="
M138.939514,331.088074 
	C137.249115,328.708923 135.308167,326.466492 133.919907,323.922485 
	C130.924149,318.432739 128.104019,312.839233 125.430054,307.185089 
	C124.100143,304.372986 123.129341,301.370056 122.230194,298.382965 
	C121.680710,296.557526 121.575867,294.598236 121.198799,292.246796 
	C122.188683,292.465729 123.020096,292.649628 124.360954,292.946228 
	C123.430473,288.526337 122.697769,284.229401 121.608253,280.024902 
	C118.438622,267.793060 118.237434,255.392029 119.122269,242.898132 
	C119.337677,239.856598 120.797195,236.458420 117.120575,234.285202 
	C117.031151,234.232346 117.036919,233.979599 117.036850,233.820038 
	C117.033134,225.103241 117.033546,216.386459 117.033546,207.669662 
	C117.508469,207.638245 117.983398,207.606812 118.458321,207.575378 
	C118.807785,208.419083 119.157242,209.262787 119.506706,210.106491 
	C119.869186,210.131790 120.231674,210.157104 120.594154,210.182419 
	C120.952614,207.933380 121.311073,205.684341 121.791908,202.667511 
	C123.786392,201.343964 127.893997,200.163437 123.571808,195.444092 
	C122.601791,194.384933 124.766998,189.830414 126.210320,187.295898 
	C131.675385,177.699066 137.187637,168.108154 143.225525,158.870102 
	C145.286621,155.716629 148.851364,153.489563 151.893982,151.044403 
	C161.387375,143.415131 170.184387,134.840668 181.569565,129.794647 
	C187.084396,127.350418 192.361420,124.369614 197.942352,121.531960 
	C197.989166,121.648415 197.666718,120.846115 197.528076,120.501167 
	C206.627777,117.982307 215.482193,115.148750 224.517532,113.121521 
	C237.514236,110.205505 250.307159,113.157913 263.090271,115.405022 
	C270.609558,116.726822 278.242035,117.483009 285.686462,119.117973 
	C289.094330,119.866417 292.105835,122.280815 295.421051,123.636703 
	C297.774994,124.599449 300.423492,124.838417 302.784393,125.788460 
	C306.212280,127.167877 309.602386,128.716980 312.805908,130.548340 
	C314.578583,131.561752 315.667999,133.554962 318.305389,131.997772 
	C319.037964,131.565247 320.946381,132.942841 322.227142,133.649811 
	C330.196259,138.048599 335.489105,145.116058 341.158417,151.974045 
	C345.652679,157.410553 351.375336,161.817993 356.407379,166.828217 
	C359.797180,170.203308 362.308197,174.039124 361.188690,179.265533 
	C361.022491,180.041641 361.321838,181.216263 361.854919,181.786911 
	C363.408722,183.450104 365.190186,184.900589 366.952820,186.498322 
	C367.164948,186.155426 367.662445,185.351242 368.800842,183.511078 
	C369.085693,187.055054 373.610809,188.885071 370.118500,191.814377 
	C371.175629,194.184647 372.301880,196.257675 373.046814,198.459702 
	C376.029907,207.277435 376.541473,216.973663 382.284302,225.025070 
	C382.803101,224.159851 383.157013,223.569595 384.044922,222.088852 
	C384.340240,228.802811 384.682404,234.574783 384.819641,240.351593 
	C384.924866,244.779236 384.963654,249.226669 384.650269,253.638184 
	C384.498383,255.776077 383.293823,257.817047 382.872040,259.962067 
	C381.602142,266.420654 380.848450,273.003418 379.204834,279.359711 
	C377.445221,286.164429 374.167908,292.627930 372.872345,299.489471 
	C370.885590,310.011414 364.406067,317.978729 358.919556,327.308624 
	C358.581635,328.358948 358.588440,328.850677 358.595245,329.342438 
	C359.138855,328.972168 359.682434,328.601898 360.226044,328.231628 
	C359.514648,329.830139 359.165070,331.770996 358.030975,332.969574 
	C352.242401,339.087372 346.265137,345.027313 340.325836,351.001617 
	C336.465271,354.884979 332.559479,358.723480 328.662811,362.570862 
	C328.433075,362.797638 328.110321,362.934967 327.820709,363.095703 
	C315.347412,370.018738 303.290771,377.881622 289.206390,381.314026 
	C283.455841,382.715393 277.510010,383.299072 271.720032,384.561890 
	C268.548309,385.253601 265.567719,386.786316 262.412537,387.594879 
	C246.275818,391.730011 230.524323,388.956848 214.877823,384.720093 
	C212.477646,384.070160 210.137146,383.025879 207.699249,382.719543 
	C197.606293,381.451447 191.152588,373.872345 183.194901,368.905640 
	C181.286606,367.714630 179.655685,365.427643 176.878342,367.848846 
	C176.270752,368.378540 173.769409,367.678558 172.879440,366.797882 
	C162.493851,356.520752 152.249847,346.100586 142.323120,335.303406 
	C144.785507,330.966949 142.766846,325.980713 138.547302,324.335449 
	C138.675125,326.536133 138.807312,328.812103 138.939514,331.088074 
M246.167679,286.081207 
	C245.875381,287.002167 245.583084,287.923096 244.973038,289.438812 
	C244.266693,291.933136 243.560364,294.427490 242.108490,296.971832 
	C242.500656,294.009583 242.712677,291.009583 243.323746,288.093201 
	C244.476776,282.590302 242.091354,279.874847 235.516876,280.385468 
	C235.043854,284.463043 235.116943,288.858246 233.909042,292.867462 
	C232.637421,297.088196 230.571960,301.245270 228.022812,304.841461 
	C226.427063,307.092682 223.873459,306.124603 223.672043,303.102112 
	C223.444244,299.683899 223.896698,296.225677 223.871948,292.786163 
	C223.861435,291.325867 223.389374,289.868835 223.127045,288.410339 
	C221.612656,289.193481 219.132187,289.663544 218.758560,290.816437 
	C217.450851,294.851379 216.274002,299.118652 216.251770,303.304108 
	C216.239746,305.566467 218.189301,308.999664 220.127563,309.806854 
	C222.355469,310.734680 226.020950,310.108612 228.202545,308.763519 
	C230.859055,307.125671 232.619827,304.035004 234.753967,301.588898 
	C234.941132,302.497040 234.878235,303.646545 235.395493,304.395325 
	C236.434189,305.898987 237.789536,307.183899 239.014206,308.559113 
	C240.337692,307.288025 242.167053,306.245026 242.866943,304.692749 
	C243.935074,302.323730 244.222565,299.602783 245.134079,296.444641 
	C245.715881,293.956635 246.297699,291.468628 247.044312,288.257477 
	C247.477707,287.722778 247.911118,287.188080 248.334167,286.569763 
	C248.334167,286.569763 248.379883,286.759338 248.782120,287.375031 
	C250.025299,293.343475 251.487595,294.277557 255.202927,292.269531 
	C254.311249,289.631714 253.605835,287.063995 252.551865,284.648285 
	C252.088181,283.585541 250.915253,282.832214 250.064316,281.938416 
	C249.055130,282.957001 248.045944,283.975586 246.675720,285.161560 
	C246.675720,285.161560 246.674026,285.559509 246.167679,286.081207 
M262.179230,233.208130 
	C262.179230,233.208130 262.366516,233.427917 262.650330,234.105789 
	C263.226227,235.824005 263.702423,238.953278 264.396301,239.002319 
	C266.701569,239.165268 270.504883,238.930435 271.183533,237.573090 
	C273.621155,232.697754 275.013000,227.299561 277.036469,221.411255 
	C275.530670,222.849747 274.515228,223.819809 273.358765,224.924561 
	C272.603546,218.720795 279.620270,211.032349 269.354889,206.877258 
	C267.595856,212.662170 266.429932,218.259811 264.159393,223.366318 
	C262.548157,226.990005 259.720123,230.214737 256.920929,233.122498 
	C254.739410,235.388672 251.578918,236.281860 248.904205,233.618454 
	C246.453522,231.178131 244.869232,228.297043 246.526779,226.107483 
	C249.577316,226.261887 252.599792,227.321442 253.707581,226.301468 
	C257.071564,223.204163 256.366516,216.498001 253.077057,214.294357 
	C248.306274,211.098419 244.472244,211.793976 242.045029,217.619766 
	C240.368927,221.642746 240.023041,226.463409 240.110291,230.907425 
	C240.193466,235.143311 243.279755,237.471100 247.579926,238.163544 
	C253.397522,239.100311 257.759369,236.301804 262.179230,233.208130 
M304.806366,289.604980 
	C302.952545,291.929016 301.313385,294.475220 299.193390,296.523804 
	C296.188843,299.427124 294.451660,298.895721 293.226044,294.937531 
	C291.386749,288.997314 291.865479,283.269562 294.312805,277.451630 
	C296.997375,271.069672 299.227295,264.472290 301.193420,257.832001 
	C301.605255,256.441101 300.003510,254.453964 299.329620,252.741562 
	C297.677826,253.536804 295.487152,253.904709 294.462311,255.197113 
	C288.115204,263.201263 285.070587,272.732330 283.286407,282.564941 
	C281.855164,290.452423 277.286743,295.593445 270.793457,299.374969 
	C267.579468,301.246704 265.195465,299.697388 265.595825,295.949677 
	C265.976074,292.390503 267.145416,288.915619 267.930695,285.561859 
	C269.374664,287.112793 270.558655,288.384491 271.742645,289.656189 
	C272.314789,289.391235 272.886902,289.126312 273.459015,288.861359 
	C273.228729,285.062805 272.998444,281.264252 272.777740,277.623627 
	C266.009918,276.441254 262.619873,278.724823 260.021973,285.628082 
	C257.319305,292.809692 258.186005,300.278839 262.734039,301.747803 
	C266.389771,302.928619 270.977631,303.091461 274.607178,301.959442 
	C278.227539,300.830292 281.170166,297.528137 283.398376,295.912262 
	C285.086212,303.289581 292.503723,307.457092 298.357147,301.844238 
	C301.671997,298.665588 303.466278,293.901245 306.640411,289.288177 
	C307.625183,289.938446 308.717682,290.471497 309.575623,291.259766 
	C312.837341,294.256653 318.268280,294.826141 323.141083,292.575500 
	C328.139954,290.266663 331.874725,285.289398 331.632233,281.396484 
	C328.828552,284.034515 326.099365,286.888458 323.063171,289.366241 
	C320.751495,291.252777 318.044952,291.231567 315.931122,288.883881 
	C313.801636,286.518829 312.164337,283.892517 314.773987,280.542236 
	C316.963776,282.227844 319.185974,285.430908 321.427094,281.230896 
	C322.473572,279.269653 323.222687,276.659149 322.844757,274.571289 
	C322.491455,272.619232 320.824219,270.146332 319.090363,269.399078 
	C317.027130,268.509857 313.075012,268.216095 312.062836,269.431335 
	C309.650208,272.328064 308.185577,276.159302 306.911102,279.812988 
	C305.893799,282.729462 305.722076,285.940918 304.806366,289.604980 
M203.874847,318.606995 
	C205.502151,313.405640 207.291031,308.246124 208.654770,302.976562 
	C209.045792,301.465546 208.207733,299.636475 207.933228,297.953217 
	C206.352402,298.232452 204.454605,298.071014 203.280457,298.915619 
	C202.119797,299.750488 201.338776,301.525116 201.012650,303.022827 
	C200.324356,306.183716 200.041885,309.432983 199.444229,313.709961 
	C191.204391,304.485046 193.378052,278.045441 201.932678,273.564301 
	C202.682297,279.413452 203.409302,285.086182 204.125412,290.673920 
	C210.674683,291.238647 212.967880,289.599121 212.030273,283.684143 
	C211.305344,279.110840 209.445419,274.427551 206.967392,270.501862 
	C204.381042,266.404572 198.667679,266.627197 195.949783,270.683167 
	C187.810867,282.829010 184.444077,296.433136 185.411072,310.936066 
	C185.700195,315.272156 187.735825,319.705414 193.017212,320.140717 
	C196.390198,320.418701 199.859970,319.522278 203.874847,318.606995 
M289.639343,230.940842 
	C293.165710,229.314560 296.692108,227.688293 300.127014,226.104187 
	C302.363861,233.073532 305.765991,236.573288 310.177795,235.716782 
	C315.019775,234.776764 321.059814,226.009018 320.788818,221.017105 
	C318.216003,223.953003 315.335419,227.240128 312.454803,230.527252 
	C311.928558,230.248032 311.402283,229.968826 310.876007,229.689606 
	C310.268402,227.658798 309.031799,225.583405 309.171967,223.605591 
	C309.580658,217.838394 310.562408,212.113022 311.275360,206.365799 
	C311.846710,201.760376 313.293854,198.040848 318.797668,197.549667 
	C319.815674,197.458847 320.738403,196.300079 322.878052,194.826279 
	C318.802277,195.371658 316.244507,195.713913 313.556366,196.073624 
	C313.556366,194.789917 313.816437,193.844269 313.506989,193.153839 
	C312.620361,191.175415 311.502869,189.300461 310.476135,187.384811 
	C308.797211,189.024963 307.071991,190.621841 305.471588,192.335342 
	C305.066040,192.769577 304.971161,193.563339 304.882019,194.212296 
	C304.361725,197.999466 302.489441,200.569122 298.605743,201.436829 
	C298.461426,201.469055 298.425720,201.987289 298.319550,202.346024 
	C299.543610,202.936584 300.776794,203.531555 301.827789,204.038605 
	C300.707306,213.850189 301.191467,224.091263 288.617828,228.726257 
	C288.617828,224.040939 288.873779,220.390884 288.497498,216.807220 
	C288.336914,215.278152 287.125610,213.056198 285.902374,212.659912 
	C284.587189,212.233871 282.559052,213.351242 281.106750,214.231812 
	C280.099731,214.842377 279.540863,216.192032 279.563416,216.161728 
	C280.708527,218.568710 281.764099,220.009399 282.077393,221.596603 
	C282.909943,225.814346 283.692566,229.900970 289.639343,230.940842 
M240.188141,208.748337 
	C241.728836,204.796463 243.269547,200.844604 244.810242,196.892746 
	C244.006470,196.546661 243.202682,196.200592 242.398911,195.854507 
	C235.131180,209.352280 228.976364,223.432388 222.894180,237.949310 
	C221.175735,235.377014 219.240402,233.712173 218.946808,231.795822 
	C218.235336,227.151917 218.652710,222.328949 217.866730,217.705368 
	C217.518341,215.655960 215.727921,212.912247 213.940994,212.255646 
	C210.862122,211.124298 207.274002,211.378784 204.981506,211.156570 
	C206.258484,216.734543 207.547577,222.006271 208.659149,227.315186 
	C209.945419,233.458435 211.044434,239.640671 212.285889,245.793640 
	C212.954895,249.109390 215.491058,250.314178 218.194031,249.188004 
	C220.427704,248.257339 222.851898,246.333206 223.884613,244.212708 
	C229.469727,232.744598 234.648041,221.078369 240.188141,208.748337 
M187.773422,253.413361 
	C192.261780,251.422562 196.838547,249.599091 201.169647,247.310715 
	C202.124466,246.806229 202.208435,244.653564 202.763474,243.058578 
	C195.651535,245.002625 189.807999,246.758728 183.872604,248.111862 
	C182.371170,248.454178 179.750626,248.023041 179.131927,247.025070 
	C178.405640,245.853546 178.693802,243.213730 179.603333,242.018066 
	C182.896225,237.689255 186.480240,233.548874 190.278931,229.653915 
	C191.822800,228.070938 194.198669,227.299408 196.195984,226.158676 
	C195.586578,225.447983 194.977188,224.737305 194.367783,224.026611 
	C190.438416,224.403931 186.509033,224.781250 182.579666,225.158585 
	C186.083832,220.556992 190.414978,218.280380 195.788269,218.186401 
	C198.684540,218.135742 201.654419,217.465881 200.993469,213.889206 
	C200.436279,210.873978 199.835190,206.837189 195.183960,207.140335 
	C189.218246,207.529129 183.735260,209.363022 179.715332,214.068939 
	C176.178391,218.209442 176.809738,222.813004 181.104721,226.198898 
	C181.797546,226.745117 182.473770,227.312393 183.454514,228.111938 
	C177.215332,233.807556 170.474533,239.122391 174.786331,248.549637 
	C177.149551,253.716507 181.705994,254.833282 187.773422,253.413361 
z"/>
<path fill="#E9E9E9" opacity="1.000000" stroke="none" 
	d="
M138.965286,331.055176 
	C138.807312,328.812103 138.675125,326.536133 138.547302,324.335449 
	C142.766846,325.980713 144.785507,330.966949 142.339447,334.944458 
	C141.423050,334.670441 140.845047,334.340607 140.431915,333.432129 
	C140.036865,332.230164 139.476944,331.606781 138.917007,330.983429 
	C138.917007,330.983429 138.991058,331.022247 138.965286,331.055176 
z"/>
<path fill="#020202" opacity="1.000000" stroke="none" 
	d="
M138.627014,331.308289 
	C139.476944,331.606781 140.036865,332.230164 140.296005,333.214447 
	C139.442474,332.927979 138.889740,332.280548 138.627014,331.308289 
z"/>
<path fill="#F2F2F2" opacity="1.000000" stroke="none" 
	d="
M305.945435,289.851105 
	C303.466278,293.901245 301.671997,298.665588 298.357147,301.844238 
	C292.503723,307.457092 285.086212,303.289581 283.398376,295.912262 
	C281.170166,297.528137 278.227539,300.830292 274.607178,301.959442 
	C270.977631,303.091461 266.389771,302.928619 262.734039,301.747803 
	C258.186005,300.278839 257.319305,292.809692 260.021973,285.628082 
	C262.619873,278.724823 266.009918,276.441254 272.777740,277.623627 
	C272.998444,281.264252 273.228729,285.062805 273.459015,288.861359 
	C272.886902,289.126312 272.314789,289.391235 271.742645,289.656189 
	C270.558655,288.384491 269.374664,287.112793 267.930695,285.561859 
	C267.145416,288.915619 265.976074,292.390503 265.595825,295.949677 
	C265.195465,299.697388 267.579468,301.246704 270.793457,299.374969 
	C277.286743,295.593445 281.855164,290.452423 283.286407,282.564941 
	C285.070587,272.732330 288.115204,263.201263 294.462311,255.197113 
	C295.487152,253.904709 297.677826,253.536804 299.329620,252.741577 
	C300.003510,254.453964 301.605255,256.441101 301.193420,257.832001 
	C299.227295,264.472290 296.997375,271.069672 294.312805,277.451630 
	C291.865479,283.269562 291.386749,288.997314 293.226044,294.937531 
	C294.451660,298.895721 296.188843,299.427124 299.193390,296.523804 
	C301.313385,294.475220 302.952545,291.929016 305.161499,289.407532 
	C305.724365,289.380371 305.867310,289.594055 305.945435,289.851105 
M292.878113,276.330872 
	C294.115692,273.073273 295.491211,269.859802 296.551544,266.545471 
	C297.586304,263.311096 298.299072,259.973724 299.153229,256.681549 
	C298.652679,256.542847 298.152161,256.404114 297.651642,256.265381 
	C292.257477,262.651947 292.118103,270.655518 291.691681,278.644806 
	C291.974091,278.105835 292.256500,277.566833 292.878113,276.330872 
z"/>
<path fill="#F7F7F7" opacity="1.000000" stroke="none" 
	d="
M203.580597,318.879669 
	C199.859970,319.522278 196.390198,320.418701 193.017212,320.140717 
	C187.735825,319.705414 185.700195,315.272156 185.411072,310.936066 
	C184.444077,296.433136 187.810867,282.829010 195.949783,270.683167 
	C198.667679,266.627197 204.381042,266.404572 206.967392,270.501862 
	C209.445419,274.427551 211.305344,279.110840 212.030273,283.684143 
	C212.967880,289.599121 210.674683,291.238647 204.125412,290.673920 
	C203.409302,285.086182 202.682297,279.413452 201.932678,273.564301 
	C193.378052,278.045441 191.204391,304.485046 199.444229,313.709961 
	C200.041885,309.432983 200.324356,306.183716 201.012650,303.022827 
	C201.338776,301.525116 202.119797,299.750488 203.280457,298.915619 
	C204.454605,298.071014 206.352402,298.232452 207.933228,297.953217 
	C208.207733,299.636475 209.045792,301.465546 208.654770,302.976562 
	C207.291031,308.246124 205.502151,313.405640 203.580597,318.879669 
z"/>
<path fill="#F1F1F1" opacity="1.000000" stroke="none" 
	d="
M289.243835,230.925247 
	C283.692566,229.900970 282.909943,225.814346 282.077393,221.596603 
	C281.764099,220.009399 280.708527,218.568710 279.563416,216.161728 
	C279.540863,216.192032 280.099731,214.842377 281.106750,214.231812 
	C282.559052,213.351242 284.587189,212.233871 285.902374,212.659912 
	C287.125610,213.056198 288.336914,215.278152 288.497498,216.807220 
	C288.873779,220.390884 288.617828,224.040939 288.617828,228.726257 
	C301.191467,224.091263 300.707306,213.850189 301.827789,204.038605 
	C300.776794,203.531555 299.543610,202.936584 298.319550,202.346024 
	C298.425720,201.987289 298.461426,201.469055 298.605743,201.436829 
	C302.489441,200.569122 304.361725,197.999466 304.882019,194.212296 
	C304.971161,193.563339 305.066040,192.769577 305.471588,192.335342 
	C307.071991,190.621841 308.797211,189.024963 310.476135,187.384827 
	C311.502869,189.300461 312.620361,191.175415 313.506989,193.153839 
	C313.816437,193.844269 313.556366,194.789917 313.556366,196.073624 
	C316.244507,195.713913 318.802277,195.371658 322.878052,194.826279 
	C320.738403,196.300079 319.815674,197.458847 318.797668,197.549667 
	C313.293854,198.040848 311.846710,201.760376 311.275360,206.365799 
	C310.562408,212.113022 309.580658,217.838394 309.171967,223.605591 
	C309.031799,225.583405 310.268402,227.658798 310.876007,229.689606 
	C311.402283,229.968826 311.928558,230.248032 312.454803,230.527252 
	C315.335419,227.240128 318.216003,223.953003 320.788818,221.017105 
	C321.059814,226.009018 315.019775,234.776764 310.177795,235.716782 
	C305.765991,236.573288 302.363861,233.073532 300.127014,226.104187 
	C296.692108,227.688293 293.165710,229.314560 289.243835,230.925247 
z"/>
<path fill="#F3F3F3" opacity="1.000000" stroke="none" 
	d="
M240.077362,209.114380 
	C234.648041,221.078369 229.469727,232.744598 223.884613,244.212708 
	C222.851898,246.333206 220.427704,248.257339 218.194031,249.188004 
	C215.491058,250.314178 212.954895,249.109390 212.285889,245.793640 
	C211.044434,239.640671 209.945419,233.458435 208.659149,227.315186 
	C207.547577,222.006271 206.258484,216.734543 204.981506,211.156570 
	C207.274002,211.378784 210.862122,211.124298 213.940994,212.255646 
	C215.727921,212.912247 217.518341,215.655960 217.866730,217.705368 
	C218.652710,222.328949 218.235336,227.151917 218.946808,231.795822 
	C219.240402,233.712173 221.175735,235.377014 222.894180,237.949310 
	C228.976364,223.432388 235.131180,209.352280 242.398911,195.854507 
	C243.202682,196.200592 244.006470,196.546661 244.810242,196.892746 
	C243.269547,200.844604 241.728836,204.796463 240.077362,209.114380 
z"/>
<path fill="#F3F3F3" opacity="1.000000" stroke="none" 
	d="
M261.990601,232.989517 
	C257.759369,236.301804 253.397522,239.100311 247.579926,238.163544 
	C243.279755,237.471100 240.193466,235.143311 240.110291,230.907425 
	C240.023041,226.463409 240.368927,221.642746 242.045029,217.619766 
	C244.472244,211.793976 248.306274,211.098419 253.077057,214.294357 
	C256.366516,216.498001 257.071564,223.204163 253.707581,226.301468 
	C252.599792,227.321442 249.577316,226.261887 246.526779,226.107483 
	C244.869232,228.297043 246.453522,231.178131 248.904205,233.618454 
	C251.578918,236.281860 254.739410,235.388672 256.920929,233.122498 
	C259.720123,230.214737 262.548157,226.990005 264.159393,223.366318 
	C266.429932,218.259811 267.595856,212.662170 269.354889,206.877258 
	C279.620270,211.032349 272.603546,218.720795 273.358765,224.924561 
	C274.515228,223.819809 275.530670,222.849747 277.036469,221.411255 
	C275.013000,227.299561 273.621155,232.697754 271.183533,237.573090 
	C270.504883,238.930435 266.701569,239.165268 264.396301,239.002319 
	C263.702423,238.953278 263.226227,235.824005 262.687744,233.573486 
	C262.672943,232.783707 262.620758,232.526245 262.568542,232.268768 
	C262.375885,232.509018 262.183258,232.749268 261.990601,232.989517 
z"/>
<path fill="#F5F5F5" opacity="1.000000" stroke="none" 
	d="
M187.375671,253.555603 
	C181.705994,254.833282 177.149551,253.716507 174.786331,248.549637 
	C170.474533,239.122391 177.215332,233.807556 183.454514,228.111938 
	C182.473770,227.312393 181.797546,226.745117 181.104721,226.198898 
	C176.809738,222.813004 176.178391,218.209442 179.715332,214.068939 
	C183.735260,209.363022 189.218246,207.529129 195.183960,207.140335 
	C199.835190,206.837189 200.436279,210.873978 200.993469,213.889206 
	C201.654419,217.465881 198.684540,218.135742 195.788269,218.186401 
	C190.414978,218.280380 186.083832,220.556992 182.579666,225.158585 
	C186.509033,224.781250 190.438416,224.403931 194.367783,224.026611 
	C194.977188,224.737305 195.586578,225.447983 196.195984,226.158676 
	C194.198669,227.299408 191.822800,228.070938 190.278931,229.653915 
	C186.480240,233.548874 182.896225,237.689255 179.603333,242.018066 
	C178.693802,243.213730 178.405640,245.853546 179.131927,247.025070 
	C179.750626,248.023041 182.371170,248.454178 183.872604,248.111862 
	C189.807999,246.758728 195.651535,245.002625 202.763474,243.058578 
	C202.208435,244.653564 202.124466,246.806229 201.169647,247.310715 
	C196.838547,249.599091 192.261780,251.422562 187.375671,253.555603 
z"/>
<path fill="#F4F4F4" opacity="1.000000" stroke="none" 
	d="
M244.841492,297.031250 
	C244.222565,299.602783 243.935074,302.323730 242.866943,304.692749 
	C242.167053,306.245026 240.337692,307.288025 239.014191,308.559113 
	C237.789536,307.183899 236.434189,305.898987 235.395493,304.395325 
	C234.878235,303.646545 234.941132,302.497040 234.753967,301.588898 
	C232.619827,304.035004 230.859055,307.125671 228.202545,308.763519 
	C226.020950,310.108612 222.355469,310.734680 220.127563,309.806854 
	C218.189301,308.999664 216.239746,305.566467 216.251770,303.304108 
	C216.274002,299.118652 217.450851,294.851379 218.758560,290.816437 
	C219.132187,289.663544 221.612656,289.193481 223.127045,288.410339 
	C223.389374,289.868835 223.861435,291.325867 223.871948,292.786163 
	C223.896698,296.225677 223.444244,299.683899 223.672043,303.102112 
	C223.873459,306.124603 226.427063,307.092682 228.022812,304.841461 
	C230.571960,301.245270 232.637421,297.088196 233.909042,292.867462 
	C235.116943,288.858246 235.043854,284.463043 235.516876,280.385468 
	C242.091354,279.874847 244.476776,282.590302 243.323746,288.093201 
	C242.712677,291.009583 242.500656,294.009583 242.978394,296.969299 
	C244.179367,296.988281 244.510422,297.009766 244.841492,297.031250 
z"/>
<path fill="#EFEFEF" opacity="1.000000" stroke="none" 
	d="
M306.292908,289.569641 
	C305.867310,289.594055 305.724365,289.380371 305.345825,289.115723 
	C305.722076,285.940918 305.893799,282.729462 306.911102,279.812988 
	C308.185577,276.159302 309.650208,272.328064 312.062836,269.431335 
	C313.075012,268.216095 317.027130,268.509857 319.090363,269.399078 
	C320.824219,270.146332 322.491455,272.619232 322.844757,274.571289 
	C323.222687,276.659149 322.473572,279.269653 321.427094,281.230896 
	C319.185974,285.430908 316.963776,282.227844 314.773987,280.542236 
	C312.164337,283.892517 313.801636,286.518829 315.931122,288.883881 
	C318.044952,291.231567 320.751495,291.252777 323.063171,289.366241 
	C326.099365,286.888458 328.828552,284.034515 331.632233,281.396484 
	C331.874725,285.289398 328.139954,290.266663 323.141083,292.575500 
	C318.268280,294.826141 312.837341,294.256653 309.575623,291.259766 
	C308.717682,290.471497 307.625183,289.938446 306.292908,289.569641 
z"/>
<path fill="#EAEAEA" opacity="1.000000" stroke="none" 
	d="
M247.036743,284.994202 
	C248.045944,283.975586 249.055130,282.957001 250.064331,281.938416 
	C250.915253,282.832214 252.088181,283.585541 252.551865,284.648285 
	C253.605835,287.063995 254.311249,289.631714 255.202927,292.269531 
	C251.487595,294.277557 250.025299,293.343475 248.664719,286.722717 
	C248.043793,285.711639 247.540283,285.352936 247.036743,284.994202 
z"/>
<path fill="#CECECE" opacity="1.000000" stroke="none" 
	d="
M244.987793,296.737946 
	C244.510422,297.009766 244.179367,296.988281 243.351166,296.944275 
	C243.560364,294.427490 244.266693,291.933136 245.528320,289.187866 
	C246.348923,288.951477 246.614212,288.966064 246.879501,288.980621 
	C246.297699,291.468628 245.715881,293.956635 244.987793,296.737946 
z"/>
<path fill="#EAEAEA" opacity="1.000000" stroke="none" 
	d="
M246.961914,288.619049 
	C246.614212,288.966064 246.348923,288.951477 245.687195,288.890503 
	C245.583084,287.923096 245.875381,287.002167 246.823517,286.116699 
	C247.767746,286.319275 248.056137,286.486328 248.344513,286.653381 
	C247.911118,287.188080 247.477707,287.722778 246.961914,288.619049 
z"/>
<path fill="#CECECE" opacity="1.000000" stroke="none" 
	d="
M246.856232,285.077881 
	C247.540283,285.352936 248.043793,285.711639 248.463593,286.414856 
	C248.379883,286.759338 248.334167,286.569763 248.339340,286.611572 
	C248.056137,286.486328 247.767746,286.319275 247.076691,285.855865 
	C246.674026,285.559509 246.675720,285.161560 246.856232,285.077881 
z"/>
<path fill="#FFFFFF" opacity="1.000000" stroke="none" 
	d="
M359.951263,328.020020 
	C359.682434,328.601898 359.138855,328.972168 358.595245,329.342438 
	C358.588440,328.850677 358.581635,328.358948 358.831787,327.653687 
	C359.284637,327.562958 359.480560,327.685699 359.951263,328.020020 
z"/>
<path fill="#1B1B1B" opacity="1.000000" stroke="none" 
	d="
M292.708496,276.679382 
	C292.256500,277.566833 291.974091,278.105835 291.691681,278.644806 
	C292.118103,270.655518 292.257477,262.651947 297.651642,256.265381 
	C298.152161,256.404114 298.652679,256.542847 299.153229,256.681549 
	C298.299072,259.973724 297.586304,263.311096 296.551544,266.545471 
	C295.491211,269.859802 294.115692,273.073273 292.708496,276.679382 
z"/>
<path fill="#020202" opacity="1.000000" stroke="none" 
	d="
M262.084900,233.098816 
	C262.183258,232.749268 262.375885,232.509018 262.568542,232.268768 
	C262.620758,232.526245 262.672943,232.783707 262.545837,233.234558 
	C262.366516,233.427917 262.179230,233.208130 262.084900,233.098816 
z"/>
</svg>